<?xml version="1.0" encoding="UTF-8"?>
<svg width="78px" height="78px" viewBox="0 0 78 78" version="1.1" xmlns="http://www.w3.org/2000/svg" xmlns:xlink="http://www.w3.org/1999/xlink">
    <title>7CB94193-732C-4C47-B91B-946D3C8980E7</title>
    <g id="Galería" stroke="none" stroke-width="1" fill="none" fill-rule="evenodd">
        <g id="CDW_Galeria_79" transform="translate(-644.000000, -296.000000)">
            <circle id="Oval" fill="#E6F2F9" cx="683" cy="411" r="213"></circle>
            <g id="Group-2" transform="translate(548.000000, 296.000000)" fill="#0078BF">
                <g id="Icon/CD/image" transform="translate(96.000000, 0.000000)">
                    <path d="M66.0833333,13 L11.9166667,13 C8.92512427,13 6.5,15.4251243 6.5,18.4166667 L6.5,56.3333333 C6.51133217,56.8388037 6.59337856,57.3401982 6.74375,57.8229167 C6.74375,57.8229167 6.74375,57.8229167 6.74375,57.8229167 L6.74375,57.8229167 C7.4050617,60.1351579 9.51176495,61.7344876 11.9166667,61.75 L66.0833333,61.75 C69.0748757,61.75 71.5,59.3248757 71.5,56.3333333 L71.5,18.4166667 C71.5,15.4251243 69.0748757,13 66.0833333,13 Z M66.0833333,15.7083333 C67.5791045,15.7083333 68.7916667,16.9208955 68.7916667,18.4166667 L68.7916667,51.7020833 L48.0729167,31.0104167 C47.5371713,30.4910036 46.6857454,30.4910036 46.15,31.0104167 L32.3916667,44.76875 C32.1353058,45.0230173 31.9911064,45.3691367 31.9911064,45.7302083 C31.9911064,46.09128 32.1353058,46.4373994 32.3916667,46.6916667 L35.1,49.4 C35.3563609,49.6542673 35.5005602,50.0003867 35.5005602,50.3614583 C35.5005602,50.72253 35.3563609,51.0686494 35.1,51.3229167 C34.5642546,51.8423297 33.7128287,51.8423297 33.1770833,51.3229167 L23.6979167,41.84375 C23.4436494,41.5873891 23.09753,41.4431898 22.7364583,41.4431898 C22.3753867,41.4431898 22.0292673,41.5873891 21.775,41.84375 L9.20833333,54.4104167 L9.20833333,18.4166667 C9.20833333,16.9208955 10.4208955,15.7083333 11.9166667,15.7083333 L66.0833333,15.7083333 Z M28.1666667,21.125 C23.6793531,21.125 20.0416667,24.7626864 20.0416667,29.25 C20.0416667,33.7373136 23.6793531,37.375 28.1666667,37.375 C32.6539803,37.375 36.2916667,33.7373136 36.2916667,29.25 C36.2916667,24.7626864 32.6539803,21.125 28.1666667,21.125 Z" id="ic_image"></path>
                </g>
            </g>
        </g>
    </g>
</svg>