<?xml version="1.0" encoding="utf-8"?>
<!-- Generator: Adobe Illustrator 25.2.1, SVG Export Plug-In . SVG Version: 6.00 Build 0)  -->
<svg version="1.1" id="Capa_1" xmlns="http://www.w3.org/2000/svg" xmlns:xlink="http://www.w3.org/1999/xlink" x="0px" y="0px"
	 viewBox="0 0 32 32" style="enable-background:new 0 0 32 32;" xml:space="preserve">
<style type="text/css">
	.st0{fill-rule:evenodd;clip-rule:evenodd;}
</style>
<path id="ic_image" class="st0" d="M29.3,4H2.7C1.2,4,0,5.2,0,6.7v18.7c0,0.2,0,0.5,0.1,0.7l0,0l0,0C0.4,27.2,1.5,28,2.7,28h26.7
	c1.5,0,2.7-1.2,2.7-2.7V6.7C32,5.2,30.8,4,29.3,4z M29.3,5.3c0.7,0,1.3,0.6,1.3,1.3v16.4L20.5,12.9c-0.3-0.3-0.7-0.3-0.9,0l-6.8,6.8
	c-0.1,0.1-0.2,0.3-0.2,0.5s0.1,0.3,0.2,0.5l1.3,1.3c0.1,0.1,0.2,0.3,0.2,0.5c0,0.2-0.1,0.3-0.2,0.5c-0.3,0.3-0.7,0.3-0.9,0l-4.7-4.7
	C8.3,18.1,8.2,18,8,18s-0.3,0.1-0.5,0.2l-6.2,6.2V6.7c0-0.7,0.6-1.3,1.3-1.3H29.3z M10.7,8c-2.2,0-4,1.8-4,4s1.8,4,4,4s4-1.8,4-4
	S12.9,8,10.7,8z"/>
</svg>
